# xmcd
#
# Track frame offsets: 
#        150
#        13447
#        27847
#        42022
#        63105
#        80047
#        94892
#        113622
#        134527
#        148832
#
# Disc length: 2205 seconds
#
# Revision: 8
# Processed by: cddbd v1.5.2PL0 Copyright (c) Steve Scherf et al.
# Submitted via: ExactAudioCopyFreeDBPlugin 1.0
#
DISCID=87089b0a
DTITLE=Kelly Willis - Bang Bang
DYEAR=1991
DGENRE=Country
TTITLE0=I`ll Try Again
TTITLE1=Too Much to Ask
TTITLE2=The Heart That Love Forgot
TTITLE3=Sincerely (Too Late to Turn Back Now)
TTITLE4=Baby Take a Piece of My Heart
TTITLE5=Bang Bang
TTITLE6=Hidden Things
TTITLE7=Not Afriad of the Dark
TTITLE8=Standing by the River
TTITLE9=Settle for Love
EXTD=YEAR: 1991
EXTT0=
EXTT1=
EXTT2=
EXTT3=
EXTT4=
EXTT5=
EXTT6=
EXTT7=
EXTT8=
EXTT9=
PLAYORDER=
